<svg xmlns="http://www.w3.org/2000/svg" xmlns:oryx="http://oryx-editor.org" id="_E2E5EAAC-37F5-4B26-9665-092C914AF26F" width="533.765625" height="323" xmlns:xlink="http://www.w3.org/1999/xlink" xmlns:svg="http://www.w3.org/2000/svg"><defs><marker id="_A8222D1D-AC69-4E02-86DF-40EE04FAB3C7start" refX="1" refY="5" markerUnits="userSpaceOnUse" markerWidth="17" markerHeight="11" orient="auto" fill="#000000" stroke="#000000"> 	  		<path id="_A8222D1D-AC69-4E02-86DF-40EE04FAB3C7conditional" d="M 0 5 L 8 0 L 16 5 L 8 10 L 0 5" fill="white" stroke="#000000" stroke-width="1" display="none"/> 			<path id="_A8222D1D-AC69-4E02-86DF-40EE04FAB3C7default" d="M 5 0 L 11 10" fill="white" stroke="#000000" stroke-width="1" display="none"/> 	  	</marker><marker id="_A8222D1D-AC69-4E02-86DF-40EE04FAB3C7end" refX="15" refY="6" markerUnits="userSpaceOnUse" markerWidth="15" markerHeight="12" orient="auto" fill="#000000" stroke="#000000"> 	  		<path id="_A8222D1D-AC69-4E02-86DF-40EE04FAB3C7frame2" d="M 0 1 L 15 6 L 0 11z" fill="#000000" stroke="#000000" stroke-linejoin="round" stroke-width="2"/> 	  	</marker><marker id="_CB6E68F1-BFB0-4D1E-A03C-D6A368326A41start" refX="1" refY="5" markerUnits="userSpaceOnUse" markerWidth="17" markerHeight="11" orient="auto" fill="#000000" stroke="#000000"> 	  		<path id="_CB6E68F1-BFB0-4D1E-A03C-D6A368326A41conditional" d="M 0 5 L 8 0 L 16 5 L 8 10 L 0 5" fill="white" stroke="#000000" stroke-width="1" display="none"/> 			<path id="_CB6E68F1-BFB0-4D1E-A03C-D6A368326A41default" d="M 5 0 L 11 10" fill="white" stroke="#000000" stroke-width="1" display="none"/> 	  	</marker><marker id="_CB6E68F1-BFB0-4D1E-A03C-D6A368326A41end" refX="15" refY="6" markerUnits="userSpaceOnUse" markerWidth="15" markerHeight="12" orient="auto" fill="#000000" stroke="#000000"> 	  		<path id="_CB6E68F1-BFB0-4D1E-A03C-D6A368326A41frame2" d="M 0 1 L 15 6 L 0 11z" fill="#000000" stroke="#000000" stroke-linejoin="round" stroke-width="2"/> 	  	</marker><marker id="_DFC22721-EE59-4E01-8A61-4E2EC55D1D9Cstart" refX="1" refY="5" markerUnits="userSpaceOnUse" markerWidth="17" markerHeight="11" orient="auto" fill="#000000" stroke="#000000"> 	  		<path id="_DFC22721-EE59-4E01-8A61-4E2EC55D1D9Cconditional" d="M 0 5 L 8 0 L 16 5 L 8 10 L 0 5" fill="white" stroke="#000000" stroke-width="1" display="none"/> 			<path id="_DFC22721-EE59-4E01-8A61-4E2EC55D1D9Cdefault" d="M 5 0 L 11 10" fill="white" stroke="#000000" stroke-width="1" display="none"/> 	  	</marker><marker id="_DFC22721-EE59-4E01-8A61-4E2EC55D1D9Cend" refX="15" refY="6" markerUnits="userSpaceOnUse" markerWidth="15" markerHeight="12" orient="auto" fill="#000000" stroke="#000000"> 	  		<path id="_DFC22721-EE59-4E01-8A61-4E2EC55D1D9Cframe2" d="M 0 1 L 15 6 L 0 11z" fill="#000000" stroke="#000000" stroke-linejoin="round" stroke-width="2"/> 	  	</marker><marker id="_0711109D-1431-4EDD-85ED-A08AD3A5C371start" refX="1" refY="5" markerUnits="userSpaceOnUse" markerWidth="17" markerHeight="11" orient="auto" fill="#000000" stroke="#000000"> 	  		<path id="_0711109D-1431-4EDD-85ED-A08AD3A5C371conditional" d="M 0 5 L 8 0 L 16 5 L 8 10 L 0 5" fill="white" stroke="#000000" stroke-width="1" display="none"/> 			<path id="_0711109D-1431-4EDD-85ED-A08AD3A5C371default" d="M 5 0 L 11 10" fill="white" stroke="#000000" stroke-width="1" display="none"/> 	  	</marker><marker id="_0711109D-1431-4EDD-85ED-A08AD3A5C371end" refX="15" refY="6" markerUnits="userSpaceOnUse" markerWidth="15" markerHeight="12" orient="auto" fill="#000000" stroke="#000000"> 	  		<path id="_0711109D-1431-4EDD-85ED-A08AD3A5C371frame2" d="M 0 1 L 15 6 L 0 11z" fill="#000000" stroke="#000000" stroke-linejoin="round" stroke-width="2"/> 	  	</marker></defs><g stroke="none" font-family="Verdana, sans-serif" font-size-adjust="none" font-style="normal" font-variant="normal" font-weight="normal" line-heigth="normal" font-size="12"><g class="stencils" transform="translate(15.765625, 15)"><g class="me"/><g class="children"><g id="_A5DCC367-C384-4629-A306-22EEC4568464" bpmn2nodeid="processStartEvent"><g class="stencils" transform="translate(120, 165)"><g class="me"><g pointer-events="fill" id="_A5DCC367-C384-4629-A306-22EEC4568464">        <defs id="_A5DCC367-C384-4629-A306-22EEC4568464__A5DCC367-C384-4629-A306-22EEC4568464_5"> 		<radialGradient id="_A5DCC367-C384-4629-A306-22EEC4568464background" cx="10%" cy="10%" r="100%" fx="10%" fy="10%"> 			<stop offset="0%" stop-color="#ffffff" stop-opacity="1" id="_A5DCC367-C384-4629-A306-22EEC4568464__A5DCC367-C384-4629-A306-22EEC4568464_6"/> 			<stop id="_A5DCC367-C384-4629-A306-22EEC4568464fill_el" offset="100%" stop-color="#9acd32" stop-opacity="1"/> 		</radialGradient> 	</defs> 	     <circle id="_A5DCC367-C384-4629-A306-22EEC4568464bg_frame" cx="15" cy="15" r="15" stroke="#000000" fill="url(#_A5DCC367-C384-4629-A306-22EEC4568464background) white" stroke-width="1" style="stroke-dasharray: 5.5, 3"/>      <circle id="_A5DCC367-C384-4629-A306-22EEC4568464frame" cx="15" cy="15" r="15" stroke="#000000" fill="none" stroke-width="1" display="inherit"/>  	<text font-size="11" id="_A5DCC367-C384-4629-A306-22EEC4568464text_name" x="15" y="32" oryx:align="top center" stroke="black" stroke-width="0pt" letter-spacing="-0.01px" fill="#000000" text-anchor="middle" transform="rotate(0 15 32)" visibility="inherit" oryx:fontSize="11"/>   </g></g><g class="children" style="overflow:hidden"/><g class="edge"/></g><g class="controls"><g class="dockers"/><g class="magnets" transform="translate(120, 165)"><g pointer-events="all" display="none" transform="translate(7, 7)"><circle cx="8" cy="8" r="4" stroke="none" fill="red" fill-opacity="0.3"/></g></g></g></g><g id="_E4462B69-7882-4A2E-9D10-E011A1288CEA" bpmn2nodeid="_1A7832E9-160B-4E84-899F-92E136053D05"><g class="stencils" transform="translate(195, 140)"><g class="me"><g pointer-events="fill" oryx:minimumSize="50 40" id="_E4462B69-7882-4A2E-9D10-E011A1288CEA">   	<defs id="_E4462B69-7882-4A2E-9D10-E011A1288CEA__E4462B69-7882-4A2E-9D10-E011A1288CEA_17"> 		<radialGradient id="_E4462B69-7882-4A2E-9D10-E011A1288CEAbackground" cx="10%" cy="10%" r="100%" fx="10%" fy="10%"> 			<stop offset="0%" stop-color="#ffffff" stop-opacity="1" id="_E4462B69-7882-4A2E-9D10-E011A1288CEA__E4462B69-7882-4A2E-9D10-E011A1288CEA_18"/> 			<stop id="_E4462B69-7882-4A2E-9D10-E011A1288CEAfill_el" offset="100%" stop-color="#fafad2" stop-opacity="1"/> 		</radialGradient> 		<radialGradient id="_E4462B69-7882-4A2E-9D10-E011A1288CEAborderbackground" cx="10%" cy="10%" r="100%" fx="10%" fy="10%"> 			<stop offset="0%" stop-color="#ffffff" stop-opacity="1" id="_E4462B69-7882-4A2E-9D10-E011A1288CEA__E4462B69-7882-4A2E-9D10-E011A1288CEA_19"/> 			<stop id="_E4462B69-7882-4A2E-9D10-E011A1288CEAfill_border" offset="100%" stop-color="#000000" stop-opacity="1" stroke="#000000"/> 		</radialGradient> 	</defs> 	 	<rect id="_E4462B69-7882-4A2E-9D10-E011A1288CEAtext_frame" oryx:anchors="bottom top right left" x="1" y="1" width="94" height="79" rx="10" ry="10" stroke="none" stroke-width="0" fill="none"/> 	<rect id="_E4462B69-7882-4A2E-9D10-E011A1288CEAbg_frame" oryx:resize="vertical horizontal" x="0" y="0" width="100" height="80" rx="10" ry="10" stroke="#000000" stroke-width="1" fill="url(#_E4462B69-7882-4A2E-9D10-E011A1288CEAbackground) #ffffcc"/> 		<text font-size="12" id="_E4462B69-7882-4A2E-9D10-E011A1288CEAtext_name" x="50" y="40" oryx:align="middle center" oryx:fittoelem="text_frame" stroke="black" text-anchor="middle" stroke-width="0pt" letter-spacing="-0.01px" fill="#000000" transform="rotate(0 50 40)" visibility="inherit" oryx:fontSize="12"><tspan x="50" y="40" dy="5">exception</tspan></text>     <g id="_E4462B69-7882-4A2E-9D10-E011A1288CEAmanualTask" transform="scale(0.7,0.7) translate(8,8)" display="none">     	<path oryx:anchors="top left" id="_E4462B69-7882-4A2E-9D10-E011A1288CEAframe" style="opacity:1;fill:none;fill-opacity:1;stroke-width:1" d="M0.5,3.751l4.083-3.25c0,0,11.166,0.083,12.083,0.083s-2.417,2.917-1.5,2.917     s11.667,0,12.584,0c1.166,1.708-0.168,3.167-0.834,3.667s0.875,1.917-1,4.417c-0.75,0.25,0.75,1.875-1.333,3.333     c-1.167,0.583,0.583,1.542-1.25,2.833c-1.167,0-20.833,0.083-20.833,0.083l-2-1.333V3.751z" stroke="#000000"/> 		<path id="_E4462B69-7882-4A2E-9D10-E011A1288CEAframe2" oryx:anchors="top left" style="opacity:1;fill:none;stroke-width:2" d="M 13.5 7 L 27 7" stroke="#000000"/> 		<path id="_E4462B69-7882-4A2E-9D10-E011A1288CEAframe3" oryx:anchors="top left" style="opacity:1;fill:none;stroke-width:2" d="M 13.5 11 L 26 11" stroke="#000000"/> 		<path id="_E4462B69-7882-4A2E-9D10-E011A1288CEAframe4" oryx:anchors="top left" style="opacity:1;fill:none;stroke-width:1.5" d="M 14 14.5 L 25 14.5" stroke="#000000"/> 		<path id="_E4462B69-7882-4A2E-9D10-E011A1288CEAframe5" oryx:anchors="top left" style="opacity:1;fill:none;stroke-width:1.5" d="M 8.2 3.1 L 15 3.1" stroke="#000000"/> 	</g> 	 	<g id="_E4462B69-7882-4A2E-9D10-E011A1288CEAbusinessRuleTask" transform="scale(0.7,0.7) translate(8,8)" display="none"> 		<rect id="_E4462B69-7882-4A2E-9D10-E011A1288CEAframe6" oryx:anchors="top left" x="0" y="0" width="22" height="4" style="opacity:1;fill:#B3B1B3;fill-opacity:1;" stroke="#000000"/> 		<rect id="_E4462B69-7882-4A2E-9D10-E011A1288CEAframe7" oryx:anchors="top left" x="0" y="4" style="opacity:1;fill:none;" width="22" height="12" stroke="#000000"/> 		<path id="_E4462B69-7882-4A2E-9D10-E011A1288CEAframe8" oryx:anchors="top left" style="opacity:1;fill:none;" d="M 0 10 L 22 10" stroke="#000000"/> 		<path id="_E4462B69-7882-4A2E-9D10-E011A1288CEAframe9" oryx:anchors="top left" style="opacity:1; fill:none;" d="M 7 4 L 7 16" stroke="#000000"/> 	</g> 	 	<g id="_E4462B69-7882-4A2E-9D10-E011A1288CEAscriptTask" transform="scale(0.7,0.7) translate(8,8)" display="none"> 		<path oryx:anchors="top left" id="_E4462B69-7882-4A2E-9D10-E011A1288CEAframe10" style="opacity:1;fill:none;" stroke="#000000" d="M6.402,0.5h14.5c0,0-5.833,2.833-5.833,5.583s4.417,6,4.417,9.167    s-4.167,5.083-4.167,5.083H0.235c0,0,5-2.667,5-5s-4.583-6.75-4.583-9.25S6.402,0.5,6.402,0.5z"/> 		<path oryx:anchors="top left" id="_E4462B69-7882-4A2E-9D10-E011A1288CEAframe11" style="opacity:1;fill:none;stroke-width:1.5" d="M 3.5 4.5 L 13.5 4.5" stroke="#000000"/> 		<path oryx:anchors="top left" id="_E4462B69-7882-4A2E-9D10-E011A1288CEAframe12" style="opacity:1;fill:none;stroke-width:1.5" d="M 3.8 8.5 L 13.8 8.5" stroke="#000000"/> 		<path oryx:anchors="top left" id="_E4462B69-7882-4A2E-9D10-E011A1288CEAframe13" style="opacity:1;fill:none;stroke-width:1.5" d="M 6.3 12.5 L 16.3 12.5" stroke="#000000"/> 		<path oryx:anchors="top left" id="_E4462B69-7882-4A2E-9D10-E011A1288CEAframe14" style="opacity:1;fill:none;stroke-width:1.5" d="M 6.5 16.5 L 16.5 16.5" stroke="#000000"/> 	</g> 	 	<g id="_E4462B69-7882-4A2E-9D10-E011A1288CEAuserTask" transform="scale(0.7,0.7) translate(8,8)" display="inherit"> 		<path id="_E4462B69-7882-4A2E-9D10-E011A1288CEAframe15" oryx:anchors="top left" style="opacity:1;fill:#F4F6F7" stroke="#000000" d="M0.585,24.167h24.083v-7.833c0,0-2.333-3.917-7.083-5.167h-9.25    c-4.417,1.333-7.833,5.75-7.833,5.75L0.585,24.167z"/> 		<path id="_E4462B69-7882-4A2E-9D10-E011A1288CEAframe16" oryx:anchors="top left" style="opacity:1;fill:none" d="M 6 20 L 6 24" stroke="#000000"/> 		<path id="_E4462B69-7882-4A2E-9D10-E011A1288CEAframe17" oryx:anchors="top left" style="opacity:1;fill:none" d="M 20 20 L 20 24" stroke="#000000"/> 		<circle id="_E4462B69-7882-4A2E-9D10-E011A1288CEAframe18" oryx:anchors="top left" fill="black" cx="13.002" cy="5.916" r="5.417" stroke="#000000"/> 		<path id="_E4462B69-7882-4A2E-9D10-E011A1288CEAframe19" oryx:anchors="top left" style="opacity:1;fill:#F0EFF0;" stroke="#000000" d="M8.043,7.083c0,0,2.814-2.426,5.376-1.807s4.624-0.693,4.624-0.693    c0.25,1.688,0.042,3.75-1.458,5.584c0,0,1.083,0.75,1.083,1.5s0.125,1.875-1,3s-5.5,1.25-6.75,0S8.668,12.834,8.668,12    s0.583-1.25,1.25-1.917C8.835,9.5,7.419,7.708,8.043,7.083z"/> 	</g> 	 	<g id="_E4462B69-7882-4A2E-9D10-E011A1288CEAserviceTask" transform="scale(0.7,0.7) translate(8,8)" display="none"> 		<polygon oryx:anchors="top left" id="_E4462B69-7882-4A2E-9D10-E011A1288CEAframe20" style="opacity:1;fill:#ffffff" stroke="#000000" points="15.392,5.064 17.954,2.502 20.347,4.895 17.786,7.455     18.729,9.732 22.353,9.732 22.353,13.115 18.731,13.115 17.788,15.392 20.351,17.955 17.958,20.347 15.397,17.786 13.12,18.729     13.12,22.353 9.737,22.353 9.737,18.731 7.46,17.788 4.897,20.35 2.506,17.958 5.066,15.397 4.124,13.12 0.5,13.12 0.5,9.737     4.121,9.737 5.065,7.461 2.503,4.898 4.895,2.506 7.455,5.066 9.732,4.125 9.732,0.5 13.116,0.5 13.116,4.121 "/> 		<circle oryx:anchors="top left" id="_E4462B69-7882-4A2E-9D10-E011A1288CEAframe21" style="opacity:1;fill:none" stroke="#000000" cx="11.427" cy="11.426" r="3.714"/> 		<polygon oryx:anchors="top left" id="_E4462B69-7882-4A2E-9D10-E011A1288CEAframe22" style="opacity:1;fill:#ffffff" stroke="#000000" points="21.392,11.064 23.954,8.502 26.347,10.895 23.786,13.455     24.729,15.732 28.353,15.732 28.353,19.115 24.731,19.115 23.788,21.392 26.351,23.955 23.958,26.347 21.397,23.786 19.12,24.729     19.12,28.353 15.737,28.353 15.737,24.731 13.46,23.788 10.897,26.35 8.506,23.958 11.066,21.397 10.124,19.12 6.5,19.12     6.5,15.737 10.121,15.737 11.065,13.461 8.503,10.898 10.895,8.506 13.455,11.066 15.732,10.125 15.732,6.5 19.116,6.5     19.116,10.121 "/> 		<circle oryx:anchors="top left" id="_E4462B69-7882-4A2E-9D10-E011A1288CEAframe23" style="opacity:1;fill:none;" stroke="#000000" cx="17.427" cy="17.426" r="3.714"/> 	</g> 	 	<g id="_E4462B69-7882-4A2E-9D10-E011A1288CEAsendTask" display="none"> 		<path id="_E4462B69-7882-4A2E-9D10-E011A1288CEAstframe24" oryx:anchors="left top" stroke="#FFFFFF" fill="black" stroke-width="1" d="M8,11 L8,21 L24,21 L24,11 L16,17z"/> 		<path id="_E4462B69-7882-4A2E-9D10-E011A1288CEAstframe25" oryx:anchors="left top" stroke="#FFFFFF" fill="black" stroke-width="1" d="M7,10 L16,17 L25 10z"/> 	</g> 	 	<g id="_E4462B69-7882-4A2E-9D10-E011A1288CEAreceiveTask" display="none"> 		<path id="_E4462B69-7882-4A2E-9D10-E011A1288CEAframe26" oryx:anchors="left top" stroke="#000000" fill="none" stroke-width="1" d="M8,11 L8,21 L24,21 L24,11z M8,11 L16,17 L24,11"/> 	</g> 	 	<g id="_E4462B69-7882-4A2E-9D10-E011A1288CEAnone" display="inherit"/>  	<g id="_E4462B69-7882-4A2E-9D10-E011A1288CEAsequential" display="none">         <path oryx:anchors="bottom" fill="none" stroke="#000000" stroke-width="2" d="M46,76h10M46,72h10 M46,68h10" id="_E4462B69-7882-4A2E-9D10-E011A1288CEA__E4462B69-7882-4A2E-9D10-E011A1288CEA_20"/>     </g>   </g></g><g class="children" style="overflow:hidden"/><g class="edge"/></g><g class="controls"><g class="dockers"/><g class="magnets" transform="translate(195, 140)"><g pointer-events="all" display="none" transform="translate(-7, 12)"><circle cx="8" cy="8" r="4" stroke="none" fill="red" fill-opacity="0.3"/></g><g pointer-events="all" display="none" transform="translate(-7, 32)"><circle cx="8" cy="8" r="4" stroke="none" fill="red" fill-opacity="0.3"/></g><g pointer-events="all" display="none" transform="translate(-7, 52)"><circle cx="8" cy="8" r="4" stroke="none" fill="red" fill-opacity="0.3"/></g><g pointer-events="all" display="none" transform="translate(17, 71)"><circle cx="8" cy="8" r="4" stroke="none" fill="red" fill-opacity="0.3"/></g><g pointer-events="all" display="none" transform="translate(42, 71)"><circle cx="8" cy="8" r="4" stroke="none" fill="red" fill-opacity="0.3"/></g><g pointer-events="all" display="none" transform="translate(67, 71)"><circle cx="8" cy="8" r="4" stroke="none" fill="red" fill-opacity="0.3"/></g><g pointer-events="all" display="none" transform="translate(91, 12)"><circle cx="8" cy="8" r="4" stroke="none" fill="red" fill-opacity="0.3"/></g><g pointer-events="all" display="none" transform="translate(91, 32)"><circle cx="8" cy="8" r="4" stroke="none" fill="red" fill-opacity="0.3"/></g><g pointer-events="all" display="none" transform="translate(91, 52)"><circle cx="8" cy="8" r="4" stroke="none" fill="red" fill-opacity="0.3"/></g><g pointer-events="all" display="none" transform="translate(17, -7)"><circle cx="8" cy="8" r="4" stroke="none" fill="red" fill-opacity="0.3"/></g><g pointer-events="all" display="none" transform="translate(42, -7)"><circle cx="8" cy="8" r="4" stroke="none" fill="red" fill-opacity="0.3"/></g><g pointer-events="all" display="none" transform="translate(67, -7)"><circle cx="8" cy="8" r="4" stroke="none" fill="red" fill-opacity="0.3"/></g><g pointer-events="all" display="none" transform="translate(42, 32)"><circle cx="8" cy="8" r="4" stroke="none" fill="red" fill-opacity="0.3"/></g></g></g></g><g id="_D8D667AA-D116-4E0D-9F59-77BAC61C83F4" bpmn2nodeid="_AABA38ED-FB00-4346-BD22-1995650A7DB2"><g class="stencils" transform="translate(465, 166)"><g class="me"><g pointer-events="fill" id="_D8D667AA-D116-4E0D-9F59-77BAC61C83F4">      <defs id="_D8D667AA-D116-4E0D-9F59-77BAC61C83F4__D8D667AA-D116-4E0D-9F59-77BAC61C83F4_5"> 		<radialGradient id="_D8D667AA-D116-4E0D-9F59-77BAC61C83F4background" cx="10%" cy="10%" r="100%" fx="10%" fy="10%"> 			<stop offset="0%" stop-color="#ffffff" stop-opacity="1" id="_D8D667AA-D116-4E0D-9F59-77BAC61C83F4__D8D667AA-D116-4E0D-9F59-77BAC61C83F4_6"/> 			<stop id="_D8D667AA-D116-4E0D-9F59-77BAC61C83F4fill_el" offset="100%" stop-color="#ff6347" stop-opacity="1"/> 		</radialGradient> 	</defs> 	     <circle id="_D8D667AA-D116-4E0D-9F59-77BAC61C83F4bg_frame" cx="14" cy="14" r="14" stroke="#000000" fill="url(#_D8D667AA-D116-4E0D-9F59-77BAC61C83F4background) white" stroke-width="3"/> 	<text font-size="11" id="_D8D667AA-D116-4E0D-9F59-77BAC61C83F4text_name" x="14" y="30" oryx:align="top center" stroke="black" stroke-width="0pt" letter-spacing="-0.01px" fill="#000000" text-anchor="middle" transform="rotate(0 14 30)" visibility="inherit" oryx:fontSize="11"/>   </g></g><g class="children" style="overflow:hidden"/><g class="edge"/></g><g class="controls"><g class="dockers"/><g class="magnets" transform="translate(465, 166)"><g pointer-events="all" display="none" transform="translate(6, 6)"><circle cx="8" cy="8" r="4" stroke="none" fill="red" fill-opacity="0.3"/></g></g></g></g><g id="_897D4659-1578-4FDC-9C60-54D7030AA38B" bpmn2nodeid="_AF9BAC2C-0501-424A-A6B3-039BE3D431E9"><g class="stencils" transform="translate(345, 160)"><g class="me"><g id="_897D4659-1578-4FDC-9C60-54D7030AA38B">        <defs id="_897D4659-1578-4FDC-9C60-54D7030AA38B__897D4659-1578-4FDC-9C60-54D7030AA38B_4"> 		<radialGradient id="_897D4659-1578-4FDC-9C60-54D7030AA38Bbackground" cx="10%" cy="10%" r="100%" fx="10%" fy="10%"> 			<stop offset="0%" stop-color="#ffffff" stop-opacity="1" id="_897D4659-1578-4FDC-9C60-54D7030AA38B__897D4659-1578-4FDC-9C60-54D7030AA38B_5"/> 			<stop id="_897D4659-1578-4FDC-9C60-54D7030AA38Bfill_el" offset="100%" stop-color="#f0e68c" stop-opacity="1"/> 		</radialGradient> 		<radialGradient id="_897D4659-1578-4FDC-9C60-54D7030AA38Bborderbackground" cx="10%" cy="10%" r="100%" fx="10%" fy="10%"> 			<stop offset="0%" stop-color="#ffffff" stop-opacity="1" id="_897D4659-1578-4FDC-9C60-54D7030AA38B__897D4659-1578-4FDC-9C60-54D7030AA38B_6"/> 			<stop id="_897D4659-1578-4FDC-9C60-54D7030AA38Bfill_border" offset="100%" stop-color="#a67f00" stop-opacity="1" stroke="#a67f00"/> 		</radialGradient> 	</defs> 	     <path d=" M0 20.5  L20.5 0  L40 20.5  L20.5 40  z" id="_897D4659-1578-4FDC-9C60-54D7030AA38Bbg_frame" fill="url(#_897D4659-1578-4FDC-9C60-54D7030AA38Bbackground) white" style="stroke-width:1" stroke="#a67f00"/>     <g id="_897D4659-1578-4FDC-9C60-54D7030AA38Bframe" stroke="#a67f00">       <path id="_897D4659-1578-4FDC-9C60-54D7030AA38Bframe2" d=" M13.25 12.05  L17.25 12.05  L27.65 28.95  L23.75 28.95  z" style="stroke-width:1" stroke="#a67f00" fill="url(#_897D4659-1578-4FDC-9C60-54D7030AA38Bborderbackground)"/>       <path id="_897D4659-1578-4FDC-9C60-54D7030AA38Bframe3" d=" M13.25 28.95  L23.75 12.05  L27.65 12.05  L17.25 28.95  z" style="stroke-width:1" stroke="#a67f00" fill="url(#_897D4659-1578-4FDC-9C60-54D7030AA38Bborderbackground)"/>     </g> 	 	<text id="_897D4659-1578-4FDC-9C60-54D7030AA38Btext_name" x="30.5" y="30.5" oryx:align="left top" stroke-width="0pt" letter-spacing="-0.01px" fill="#000000" text-anchor="start" transform="rotate(0 30.5 30.5)" visibility="inherit" oryx:fontSize="12"/> 	   </g></g><g class="children" style="overflow:hidden"/><g class="edge"/></g><g class="controls"><g class="dockers"/><g class="magnets" transform="translate(345, 160)"><g pointer-events="all" display="none" transform="translate(12.5, 12.5)"><circle cx="8" cy="8" r="4" stroke="none" fill="red" fill-opacity="0.3"/></g></g></g></g><g id="_FEC7A4F5-85EE-4C11-AD8B-5A363665C1D9" bpmn2nodeid="_727AFAE7-EE9F-4EFB-8EC5-DA15F11A8295"><g class="stencils" transform="translate(351, 255)"><g class="me"><g pointer-events="fill" id="_FEC7A4F5-85EE-4C11-AD8B-5A363665C1D9">        <defs id="_FEC7A4F5-85EE-4C11-AD8B-5A363665C1D9__FEC7A4F5-85EE-4C11-AD8B-5A363665C1D9_6"> 		<radialGradient id="_FEC7A4F5-85EE-4C11-AD8B-5A363665C1D9background" cx="10%" cy="10%" r="100%" fx="10%" fy="10%"> 			<stop offset="0%" stop-color="#ffffff" stop-opacity="1" id="_FEC7A4F5-85EE-4C11-AD8B-5A363665C1D9__FEC7A4F5-85EE-4C11-AD8B-5A363665C1D9_7"/> 			<stop id="_FEC7A4F5-85EE-4C11-AD8B-5A363665C1D9fill_el" offset="100%" stop-color="#ff6347" stop-opacity="1"/> 		</radialGradient> 		<radialGradient id="_FEC7A4F5-85EE-4C11-AD8B-5A363665C1D9borderbackground" cx="10%" cy="10%" r="100%" fx="10%" fy="10%"> 			<stop offset="0%" stop-color="#ffffff" stop-opacity="1" id="_FEC7A4F5-85EE-4C11-AD8B-5A363665C1D9__FEC7A4F5-85EE-4C11-AD8B-5A363665C1D9_8"/> 			<stop id="_FEC7A4F5-85EE-4C11-AD8B-5A363665C1D9fill_border" offset="100%" stop-color="#000000" stop-opacity="1" stroke="#000000"/> 		</radialGradient> 	</defs> 	     <circle id="_FEC7A4F5-85EE-4C11-AD8B-5A363665C1D9bg_frame" cx="14" cy="14" r="14" stroke="#000000" fill="url(#_FEC7A4F5-85EE-4C11-AD8B-5A363665C1D9background) white" stroke-width="3"/>          <path id="_FEC7A4F5-85EE-4C11-AD8B-5A363665C1D9frame" style="stroke-width:1.5;stroke-linecap:butt;stroke-linejoin:miter;stroke-miterlimit:10" stroke="#000000" fill="url(#_FEC7A4F5-85EE-4C11-AD8B-5A363665C1D9borderbackground)" d=" M20.820839 9.171502  L17.36734 22.58992  L11.54138 12.281818999999999  L7.3386512 18.071607  L11.048949 4.832305699999999  L16.996148 14.132659  L20.820839 9.171502  z"/> 	<text font-size="11" id="_FEC7A4F5-85EE-4C11-AD8B-5A363665C1D9text_name" x="14" y="30" oryx:align="top center" stroke="black" stroke-width="0pt" letter-spacing="-0.01px" fill="#000000" text-anchor="middle" transform="rotate(0 14 30)" visibility="inherit" oryx:fontSize="11"/>   </g></g><g class="children" style="overflow:hidden"/><g class="edge"/></g><g class="controls"><g class="dockers"/><g class="magnets" transform="translate(351, 255)"><g pointer-events="all" display="none" transform="translate(6, 6)"><circle cx="8" cy="8" r="4" stroke="none" fill="red" fill-opacity="0.3"/></g></g></g></g></g><g class="edge"><g id="_A8222D1D-AC69-4E02-86DF-40EE04FAB3C7" bpmn2nodeid="_D063E6B2-C6FC-443F-80CC-DA2E7D5D406B"><g class="stencils"><g class="me"><g pointer-events="painted" bpmn2nodeid="_FFE28414-EE3E-4BC2-97FF-D2000457958D"><path id="_A8222D1D-AC69-4E02-86DF-40EE04FAB3C7_1" d="M150.609375 180L194.15625 180 " stroke="#000000" fill="none" stroke-width="2" stroke-linecap="round" stroke-linejoin="round" marker-start="url(#_A8222D1D-AC69-4E02-86DF-40EE04FAB3C7start)" marker-end="url(#_A8222D1D-AC69-4E02-86DF-40EE04FAB3C7end)"/></g><text id="_A8222D1D-AC69-4E02-86DF-40EE04FAB3C7text_name" font-size="12" x="164.609375" y="166" oryx:edgePosition="startTop" stroke-width="0pt" letter-spacing="-0.01px" fill="#000000" text-anchor="start" transform="rotate(360 150.609375 180)" visibility="inherit" oryx:fontSize="12"/></g><g class="children" style="overflow:hidden"/><g class="edge"/></g><g class="controls"><g class="dockers"/><g class="magnets"/></g></g><g id="_CB6E68F1-BFB0-4D1E-A03C-D6A368326A41" bpmn2nodeid="_6C2DCCEF-F60B-46F8-95C4-01EA42458FA2"><g class="stencils"><g class="me"><g pointer-events="painted" bpmn2nodeid="_D047D8ED-8AED-45A3-9BD5-112986E58A1A"><path id="_CB6E68F1-BFB0-4D1E-A03C-D6A368326A41_1" d="M295.6875 180L345.25 180 " stroke="#000000" fill="none" stroke-width="2" stroke-linecap="round" stroke-linejoin="round" marker-start="url(#_CB6E68F1-BFB0-4D1E-A03C-D6A368326A41start)" marker-end="url(#_CB6E68F1-BFB0-4D1E-A03C-D6A368326A41end)"/></g><text id="_CB6E68F1-BFB0-4D1E-A03C-D6A368326A41text_name" font-size="12" x="309.6875" y="166" oryx:edgePosition="startTop" stroke-width="0pt" letter-spacing="-0.01px" fill="#000000" text-anchor="start" transform="rotate(360 295.6875 180)" visibility="inherit" oryx:fontSize="12"/></g><g class="children" style="overflow:hidden"/><g class="edge"/></g><g class="controls"><g class="dockers"/><g class="magnets"/></g></g><g id="_DFC22721-EE59-4E01-8A61-4E2EC55D1D9C" bpmn2nodeid="_DE0E758E-DB14-417A-BF9A-228D974BD171"><g class="stencils"><g class="me"><g pointer-events="painted" bpmn2nodeid="_C5160AD0-B38D-41C4-B7C4-85B8CFCC29C5"><path id="_DFC22721-EE59-4E01-8A61-4E2EC55D1D9C_1" d="M384.703125 180L464.640625 180 " stroke="#000000" fill="none" stroke-width="2" stroke-linecap="round" stroke-linejoin="round" marker-start="url(#_DFC22721-EE59-4E01-8A61-4E2EC55D1D9Cstart)" marker-end="url(#_DFC22721-EE59-4E01-8A61-4E2EC55D1D9Cend)"/></g><text id="_DFC22721-EE59-4E01-8A61-4E2EC55D1D9Ctext_name" font-size="12" x="398.703125" y="166" oryx:edgePosition="startTop" stroke-width="0pt" letter-spacing="-0.01px" fill="#000000" text-anchor="start" transform="rotate(360 384.703125 180)" visibility="inherit" oryx:fontSize="12"><tspan x="398.703125" y="166" dy="0">ok</tspan></text></g><g class="children" style="overflow:hidden"/><g class="edge"/></g><g class="controls"><g class="dockers"/><g class="magnets"/></g></g><g id="_0711109D-1431-4EDD-85ED-A08AD3A5C371" bpmn2nodeid="_C5D8F32E-FE69-4B49-9FF8-CC9CB7785C23"><g class="stencils"><g class="me"><g pointer-events="painted" bpmn2nodeid="_7DF05D88-8BA2-4540-9292-750289F0FE89"><path id="_0711109D-1431-4EDD-85ED-A08AD3A5C371_1" d="M365 200.46875L365 254.09375 " stroke="#000000" fill="none" stroke-width="2" stroke-linecap="round" stroke-linejoin="round" marker-start="url(#_0711109D-1431-4EDD-85ED-A08AD3A5C371start)" marker-end="url(#_0711109D-1431-4EDD-85ED-A08AD3A5C371end)"/></g><text id="_0711109D-1431-4EDD-85ED-A08AD3A5C371text_name" font-size="12" x="351" y="186.46875" oryx:edgePosition="startTop" stroke-width="0pt" letter-spacing="-0.01px" fill="#000000" text-anchor="end" transform="rotate(-90 365 200.46875)" visibility="inherit" oryx:fontSize="12"/></g><g class="children" style="overflow:hidden"/><g class="edge"/></g><g class="controls"><g class="dockers"/><g class="magnets"/></g></g></g><text id="_25E12C87-52DE-487F-8A40-C540716D8648" style="stroke-width:1;fill:rgb(177,194,214);font-family:arial;font-weight:bold" font-size="12" onclick="ORYX.Plugins.CanvasTitle.openTextualAnalysis()" onmouseover="ORYX.Plugins.CanvasTitle.addToolTip('_25E12C87-52DE-487F-8A40-C540716D8648')" transform="translate(10, 20)">exception-handling v.1.0 (src.exception-handling)</text></g></g></svg>